<svg xmlns="http://www.w3.org/2000/svg" viewBox="0 0 64 64">
  <rect width="64" height="64" rx="14" fill="#05070d"/>
  <path d="M40.7 6.8c-8.8 1.9-16.3 8.1-21.7 17.8l-7.3.7-4.5 8.1 8.6 1.2 13.6 13.6 1.2 8.6 8.1-4.5.7-7.3c9.7-5.4 15.9-12.9 17.8-21.7.8-3.8.3-7.6-1.5-11.1-3.5-1.8-7.3-2.3-11.1-1.4Z" fill="#f7f9fc"/>
  <path d="M19 24.6c5.4-9.7 12.9-15.9 21.7-17.8 3.8-.8 7.6-.3 11.1 1.4L29.4 48.2 15.8 34.6l3.2-10Z" fill="#c8d0da"/>
  <path d="M39.6 20.2a5.2 5.2 0 1 0 7.4 7.4 5.2 5.2 0 0 0-7.4-7.4Z" fill="#2d8cff"/>
  <path d="M14.5 43.7c-4.6 1.4-7.4 4.8-8.4 10.2 5.4-1 8.8-3.8 10.2-8.4l-1.8-1.8Z" fill="#ffffff"/>
  <path d="M20.3 49.5c-3 1-4.9 3.2-5.6 6.8 3.6-.7 5.8-2.6 6.8-5.6l-1.2-1.2Z" fill="#78d4a5"/>
  <path d="M12.2 37.9c-3 1-4.9 3.2-5.6 6.8 3.6-.7 5.8-2.6 6.8-5.6l-1.2-1.2Z" fill="#2d8cff"/>
</svg>
